<svg width="48" height="48" viewBox="0 0 48 48" fill="none" xmlns="http://www.w3.org/2000/svg">
<mask id="path-1-inside-1" fill="white">
<path fill-rule="evenodd" clip-rule="evenodd" d="M18.0121 8C17.1175 8 16.3317 8.59408 16.0878 9.4548L14.4583 15.2059H8C3.58172 15.2059 0 18.7876 0 23.2059V35C0 39.4183 3.58172 43 8 43H40C44.4183 43 48 39.4183 48 35V23.2059C48 18.7876 44.4183 15.2059 40 15.2059H33.9167L31.5058 9.24961C31.2001 8.49432 30.4667 8 29.6519 8H18.0121Z"/>
</mask>
<path d="M16.0878 9.4548L18.9742 10.2726L18.9742 10.2726L16.0878 9.4548ZM14.4583 15.2059V18.2059H16.7264L17.3447 16.0237L14.4583 15.2059ZM33.9167 15.2059L31.1358 16.3315L31.8945 18.2059H33.9167V15.2059ZM31.5058 9.24961L34.2866 8.12404V8.12403L31.5058 9.24961ZM18.9742 10.2726C18.8523 10.703 18.4594 11 18.0121 11V5C15.7756 5 13.8111 6.48521 13.2014 8.63699L18.9742 10.2726ZM17.3447 16.0237L18.9742 10.2726L13.2014 8.63699L11.572 14.3881L17.3447 16.0237ZM8 18.2059H14.4583V12.2059H8V18.2059ZM3 23.2059C3 20.4445 5.23858 18.2059 8 18.2059V12.2059C1.92487 12.2059 -3 17.1307 -3 23.2059H3ZM3 35V23.2059H-3V35H3ZM8 40C5.23858 40 3 37.7614 3 35H-3C-3 41.0751 1.92487 46 8 46V40ZM40 40H8V46H40V40ZM45 35C45 37.7614 42.7614 40 40 40V46C46.0751 46 51 41.0751 51 35H45ZM45 23.2059V35H51V23.2059H45ZM40 18.2059C42.7614 18.2059 45 20.4445 45 23.2059H51C51 17.1307 46.0751 12.2059 40 12.2059V18.2059ZM33.9167 18.2059H40V12.2059H33.9167V18.2059ZM28.725 10.3752L31.1358 16.3315L36.6975 14.0803L34.2866 8.12404L28.725 10.3752ZM29.6519 11C29.2445 11 28.8778 10.7528 28.725 10.3752L34.2866 8.12403C33.5224 6.2358 31.689 5 29.6519 5V11ZM18.0121 11H29.6519V5H18.0121V11Z" fill="#152C5B" mask="url(#path-1-inside-1)"/>
<circle cx="24" cy="29" r="5.5" stroke="#FF498D" stroke-width="3"/>
<line x1="34.5" y1="22.5" x2="40.5" y2="22.5" stroke="#FF498D" stroke-width="3" stroke-linecap="round"/>
</svg>
