<svg width="48" height="48" viewBox="0 0 48 48" fill="none" xmlns="http://www.w3.org/2000/svg">
<path d="M30.5 37C30.5 38.3349 29.3789 39.9472 26.6429 41.3152C23.9966 42.6383 20.2359 43.5 16 43.5C11.7641 43.5 8.00336 42.6383 5.35711 41.3152C2.62114 39.9472 1.5 38.3349 1.5 37C1.5 35.6651 2.62114 34.0528 5.35711 32.6848C8.00336 31.3617 11.7641 30.5 16 30.5C20.2359 30.5 23.9966 31.3617 26.6429 32.6848C29.3789 34.0528 30.5 35.6651 30.5 37Z" stroke="#152C5B" stroke-width="3"/>
<path d="M29.5 11.0918C29.5 12.4472 29.1545 14.8222 28.479 17.6933C27.8103 20.5352 26.8423 23.7628 25.65 26.7941C24.4519 29.8404 23.0563 32.6133 21.558 34.5966C20.0068 36.6498 18.6211 37.5 17.5 37.5C16.3789 37.5 14.9932 36.6498 13.442 34.5966C11.9437 32.6133 10.5481 29.8404 9.34997 26.7941C8.15771 23.7628 7.18966 20.5352 6.52103 17.6933C5.84553 14.8222 5.5 12.4472 5.5 11.0918C5.5 6.0566 10.5835 1.5 17.5 1.5C24.4165 1.5 29.5 6.0566 29.5 11.0918Z" fill="white" stroke="#152C5B" stroke-width="3"/>
<circle cx="17" cy="13" r="5.5" stroke="#FF498D" stroke-width="3"/>
</svg>
